<svg xmlns="http://www.w3.org/2000/svg" viewBox="0 0 160 160"><defs><linearGradient id="g" x1="0" y1="0" x2="1" y2="1"><stop stop-color="#ff3d5e"/><stop offset="1" stop-color="#ff9a3d"/></linearGradient></defs><rect width="160" height="160" rx="38" fill="#140b0d"/><circle cx="80" cy="80" r="58" fill="url(#g)" opacity=".13"/><path d="M53 48 35 27c1 18 5 30 16 38M107 48l18-21c-1 18-5 30-16 38" fill="#ff7049" stroke="#ffbd69" stroke-width="3"/><path d="M44 62c0-24 16-40 36-40s36 16 36 40v42c0 20-16 34-36 34s-36-14-36-34Z" fill="#d94a4a"/><path d="M51 67c10-14 48-14 58 0l-6 46-23 17-23-17Z" fill="#f06a58"/><path d="m55 77 17-6-6 16ZM105 77l-17-6 6 16Z" fill="#180b0c"/><circle cx="65" cy="79" r="3" fill="#ffce71"/><circle cx="95" cy="79" r="3" fill="#ffce71"/><path d="M68 109c8 7 16 7 24 0" stroke="#511b1f" stroke-width="5" stroke-linecap="round" fill="none"/><path d="m62 111 5 13 5-11M98 111l-5 13-5-11" fill="#fff0d9"/><path d="M80 37v18" stroke="#7d2028" stroke-width="5" stroke-linecap="round"/><circle cx="80" cy="33" r="5" fill="#ffce71"/></svg>