<svg xmlns="http://www.w3.org/2000/svg" viewBox="0 0 160 160"><defs><linearGradient id="e" x1="0" y1="0" x2="1" y2="1"><stop stop-color="#ffe89b"/><stop offset="1" stop-color="#ffb94f"/></linearGradient></defs><circle cx="80" cy="80" r="61" fill="#ffc34d" opacity=".14"/><path d="M42 62 35 28l31 21M118 62l7-34-31 21" fill="#eaa13d"/><path d="M40 76c0-31 18-51 40-51s40 20 40 51v27c0 26-18 42-40 42s-40-16-40-42Z" fill="url(#e)"/><circle cx="61" cy="81" r="5" fill="#5e4936"/><circle cx="99" cy="81" r="5" fill="#5e4936"/><path d="M75 101h10l-5 7Z" fill="#d57a55"/><path d="M68 113c8 5 16 5 24 0" fill="none" stroke="#5e4936" stroke-width="4" stroke-linecap="round"/><path d="M49 96 28 91M49 104l-22 4M111 96l21-5M111 104l22 4" stroke="#9c733f" stroke-width="3" stroke-linecap="round"/><circle cx="128" cy="38" r="10" fill="#ffd45f"/><path d="M128 18v8M128 50v8M108 38h8M140 38h8M114 24l6 6M136 46l6 6M142 24l-6 6M120 46l-6 6" stroke="#fff1a2" stroke-width="3" stroke-linecap="round"/></svg>